# xmcd
#
# Track frame offsets:
#	150
#	12196
#	22733
#	33864
#	45502
#	57320
#	70271
#	81365
#	92686
#	105220
#	117873
#	130863
#	144198
#	154733
#	167090
#	179177
#	189383
#	201805
#
# Disc length: 2864 seconds
#
# Revision: 0
# Processed by: cddbd v1.5.2PL0 Copyright (c) Steve Scherf et al.
# Submitted via: EasyCDDAExtractor 9.0.0.1
#
DISCID=e20b2e12
DTITLE=Teresa Brewer - Longing For You
DYEAR=2007
DGENRE=Acid
TTITLE0=Hello
TTITLE1=Too Much Mustard
TTITLE2=Too Young To Tango
TTITLE3=Breakin' In Ther The Blues
TTITLE4=Dancin' With Someone
TTITLE5=The Glad Song
TTITLE6=What Happened To The Music
TTITLE7=Hello Bluebird
TTITLE8=If You Want Some Lovin'
TTITLE9=Into Each Life Some Rain Must Fall
TTITLE10=I've Got The Craziest Feeling
TTITLE11=Longing For You
TTITLE12=Noodlin' Rag
TTITLE13=Our Heartbreaking Waltz
TTITLE14=Punky Punkin
TTITLE15=Rhode Island Redhead
TTITLE16=Roll Them Roly Poly Eyes
TTITLE17=A Penny A Kiss, A Penny A Hug
EXTD=
EXTT0=
EXTT1=
EXTT2=
EXTT3=
EXTT4=
EXTT5=
EXTT6=
EXTT7=
EXTT8=
EXTT9=
EXTT10=
EXTT11=
EXTT12=
EXTT13=
EXTT14=
EXTT15=
EXTT16=
EXTT17=
PLAYORDER=
